# xmcd
#
# Track frame offsets:
#	150
#	12555
#	27570
#	37501
#	50402
#	63875
#	77782
#	91281
#	105218
#	118419
#	132986
#	145877
#	158435
#	171622
#	186327
#
# Disc length: 2634 seconds
#
# Revision: 0
# Processed by: cddbd v1.5.2PL0 Copyright (c) Steve Scherf et al.
# Submitted via: EasyCDDAExtractor 16.0.6.1
#
DISCID=c50a480f
DTITLE=Μυτιληναίος Λευτέρης - Τραγούδια 45 στροφές-Μυτιληναίος Λευτέρης 1
DYEAR=1996
DGENRE=Λαϊκή
TTITLE0=Μυτιληναίος Λευτέρης - Έφυγε η αγάπη μου [1968, Γρ. Μπιθικώτση]
TTITLE1=Μυτιληναίος Λευτέρης-Γεωργούτη Βούλα - Τι κάθεσαι και λες [1970, Γιώργ
TTITLE1=ου Κοινούση]
TTITLE2=Μυτιληναίος Λευτέρης-Γκίκα Βούλα - Διπλοτέλι μου γλυκό [1971, Άκη Πάνο
TTITLE2=υ]
TTITLE3=Μυτιληναίος Λευτέρης-Πάντα Ρένα - Σταμάτησαν τα ρολόγια [1974, Γ. Κατσ
TTITLE3=αρού-Πυθαγόρα]
TTITLE4=Μυτιληναίος Λευτέρης-Γεωργούτη Βούλα - Δεν με πειράζει [1968, Κ. Παπαδ
TTITLE4=όπουλου-Γ. Κιούρκα]
TTITLE5=Μυτιληναίος Λευτέρης - Ξέρω πως φταίω [1972, Γιάννη Κιούρκα]
TTITLE6=Μυτιληναίος Λευτέρης-Γεωργούτη Βούλα - Θα σε περιμένω [1968, Αντ. Κατι
TTITLE6=νάρη]
TTITLE7=Μυτιληναίος Λευτέρης - Χωρίς παλτό [1969, Γρ. Μπιθικώτση-Ελ. Λιάκου]
TTITLE8=Μυτιληναίος Λευτέρης-Γεωργούτη Βούλα - Όποιος δεν αγάπησε [1968, Κ. Πα
TTITLE8=παδόπουλου-Ηρ. Παπασιδέρη]
TTITLE9=Μυτιληναίος Λευτέρης-Γκίκα Βούλα - Μιά ζωή χαμένη [1972, Γιάννη Κιούρκ
TTITLE9=α]
TTITLE10=Μυτιληναίος Λευτέρης-Παντελάκη Κική - Μιά γυναίκα σαν κι εσένα [1968,
TTITLE10=Άκη Πάνου]
TTITLE11=Μυτιληναίος Λευτέρης - Ένας άγνωστος [1974, Γ. Κατσαρού-Πυθαγόρα]
TTITLE12=Μυτιληναίος Λευτέρης-Παντελάκη Κική - Στερνή μου γνώση να σ' είχα πρώ
TTITLE12=τα [1968, Τ.Σούκα-Ηρ.Παπασιδέρη]
TTITLE13=Μυτιληναίος Λευτέρης - Στον ίδιο δρόμο σε περιμένω [1968, Αντ. Κατινά
TTITLE13=ρη]
TTITLE14=Μυτιληναίος Λευτέρης-Πάντα Ρένα - Οι υπάλληλοι [1974, Γ. Κατσαρού-Πυθ
TTITLE14=αγόρα]
EXTD=
EXTT0=
EXTT1=
EXTT2=
EXTT3=
EXTT4=
EXTT5=
EXTT6=
EXTT7=
EXTT8=
EXTT9=
EXTT10=
EXTT11=
EXTT12=
EXTT13=
EXTT14=
PLAYORDER=
